<svg width="500" height="500" viewBox="0 0 893 875" fill="#fff" xmlns="http://www.w3.org/2000/svg">
    <path
        d="M458.423 84.3128C465.733 107.359 454.42 135.62 431.869 149.893C419.705 157.667 417.282 156.585 426.849 147.443C435.212 139.227 446.641 122.477 448.277 115.792C448.841 113.487 447.838 108.599 446.266 105.038L443.24 98.4337L420.741 111.497C396.464 125.836 393.246 127.004 372.189 129.181C360.165 130.392 349.335 128.72 302.143 118.882C251.262 108.142 244.869 107.31 228.874 108.771C195.045 112.221 164.431 125.498 130.135 150.824C101.404 172.38 99.6826 173.425 110.962 161.281C140.448 129.647 185.093 101.968 219.246 94.1988C251.616 86.7269 272.057 88.0638 310.226 100.825C371.515 120.953 404.017 116.934 437.474 85.0506C443.834 79.0324 450.315 74.5102 452.16 74.9615C454.234 75.4692 456.846 79.7733 458.423 84.3128Z"
        fill="url(#paint0_linear_45_1711)" />
    <path
        d="M772.186 209.951C770.832 215.483 765.245 226.333 760.048 234.59C754.677 242.56 750.167 250.008 749.941 250.931C748.926 255.08 758.068 264.647 768.339 269.604C774.399 272.797 780.92 276.103 782.882 277.072C784.788 278.271 792.905 290.031 800.858 303.46C809.856 318.612 821.097 333.579 830.583 342.742C847.706 359.637 849.928 366.533 842.855 379.462C836.007 391.469 827.088 391.975 780.069 382.424C758.174 378.043 737.436 374.923 733.87 375.517C729.557 376.172 722.675 381.329 714.66 390.118C674.812 433.143 634.773 460.973 595.747 472.68C583.907 476.135 573.788 478.546 573.439 477.972C573.091 477.398 579.634 473.624 588.135 469.84C623.683 453.372 663.421 422.781 703.735 380.848C724.007 359.909 727.055 359.434 780.354 370.277C803.402 374.939 824.488 378.633 826.845 377.988C829.606 377.687 832.01 374.854 832.969 370.935C834.323 365.402 832.582 362.533 821.129 351.423C813.262 343.634 801.149 327.232 792.095 312.311C776.655 286.543 776.711 286.312 760.268 278.624C738.804 268.485 733.816 260.912 738.057 245.579C739.754 239.642 743.742 231.333 746.771 226.943C749.974 222.84 751.624 219.09 750.702 218.865C747.705 218.131 731.933 229.665 723.345 238.803C719.281 243.428 715.038 246.788 714.116 246.562C713.194 246.336 703.642 235.447 692.927 222.319C673.701 199.045 661.613 187.536 658.17 189.625C655.3 191.366 662.856 217.404 670.47 232.217C674.249 239.739 680.527 252.025 684.189 259.03L690.815 271.89L683.134 278.318C678.835 281.908 667.325 293.996 657.885 305.613C638.545 328.735 623.398 338.711 606.594 339.486C585.533 340.684 580.625 337.773 536.095 296.091C516.606 277.883 465.654 241.471 434.366 223.553C393.668 200.156 369.792 190.892 325.192 181.445C285.489 172.951 263.665 171.276 226.322 174.11C207.217 175.299 164.093 184.782 147.375 191.197C127.726 198.605 134.725 193.966 157.069 184.529C212.789 161.514 283.746 158.109 354.344 175.14C421.254 191.268 481.632 225.101 559.898 290.676C588.106 314.193 596.128 318.355 611.615 318.968C627.676 319.234 642.023 310.528 661.599 288.441L677.567 270.115L667.566 250.075C661.985 238.936 655.758 225.44 653.772 219.579C650.5 209.983 647.023 182.255 648.377 176.722C648.659 175.57 653.782 175.602 659.776 177.068C673.608 180.453 687.305 191.379 703.812 211.789C710.705 220.561 716.785 227.668 717.246 227.781C717.937 227.95 724.189 223.372 731.24 217.523C743.451 207.561 765.103 197.956 771.558 199.535C773.633 200.043 773.765 203.496 772.186 209.951Z"
        fill="url(#paint1_linear_45_1711)" />
    <path
        d="M271.618 276.575C331.31 311.217 364.368 360.843 357.451 405.085C352.987 433.312 330.083 446.033 246.32 466.828C205.445 477.105 163.718 489.862 142.809 498.428C94.3285 518.817 49.426 552.542 22.0953 589.345L14.7206 599.513L18.6422 589.478C24.3273 575.231 46.1546 542.945 60.0676 528.025C95.9084 489.395 130.581 470.514 199.621 451.98C327.754 417.609 350.117 354.179 260.577 278.76C239.766 260.962 243.619 260.195 271.618 276.575Z"
        fill="url(#paint2_linear_45_1711)" />
    <path
        d="M515.012 409.191C503.024 429.225 495.976 447.046 490.161 469.812L483.499 496.036L488.774 503.435C495.729 512.956 504.715 514.177 536.408 509.472C548.832 507.625 563.336 507.265 568.407 508.506C579.99 511.096 590.106 519.68 592.456 529.051L594.16 536.065L576.353 531.952C565.057 529.187 547.608 527.605 526.828 527.652C486.535 527.565 463.313 522.615 459.872 513.711C455.034 501.532 467.843 473.147 496.82 431.616C512.307 409.262 521.404 398.05 515.012 409.191Z"
        fill="url(#paint3_linear_45_1711)" />
    <path
        d="M638.648 679.128C646.184 679.128 652.213 681.294 656.735 685.628C661.256 689.773 663.517 695.331 663.517 702.302V804.041C663.517 827.027 656.546 844.455 642.604 856.324C628.85 868.194 608.597 874.129 581.843 874.129C571.48 874.129 561.683 873.187 552.451 871.303C543.219 869.419 535.401 866.687 528.995 863.107C525.603 861.223 522.871 858.774 520.799 855.759C518.915 852.745 517.973 849.353 517.973 845.585C517.973 840.121 519.292 835.694 521.929 832.302C524.756 828.911 528.335 827.215 532.669 827.215C536.06 827.215 542.183 828.629 551.038 831.455C556.879 833.339 562.06 834.752 566.582 835.694C571.104 836.824 575.72 837.389 580.43 837.389C591.923 837.389 600.307 834.94 605.582 830.042C611.046 825.331 613.778 817.795 613.778 807.433V796.694C609.633 802.911 603.698 807.904 595.973 811.672C588.249 815.252 579.865 817.041 570.821 817.041C558.763 817.041 548.024 814.215 538.603 808.563C529.183 802.911 521.835 794.904 516.56 784.541C511.284 773.99 508.647 761.838 508.647 748.085C508.647 734.331 511.284 722.179 516.56 711.628C521.835 701.077 529.183 692.975 538.603 687.323C548.024 681.483 558.763 678.562 570.821 678.562C580.053 678.562 588.531 680.446 596.256 684.214C603.981 687.983 609.916 693.164 614.06 699.758C614.437 693.352 616.792 688.359 621.126 684.78C625.648 681.012 631.488 679.128 638.648 679.128ZM586.082 779.454C594.937 779.454 601.814 776.722 606.713 771.259C611.611 765.795 614.06 758.07 614.06 748.085C614.06 738.099 611.611 730.28 606.713 724.628C601.814 718.976 594.937 716.149 586.082 716.149C577.415 716.149 570.633 718.976 565.734 724.628C560.835 730.092 558.386 737.911 558.386 748.085C558.386 757.882 560.835 765.606 565.734 771.259C570.821 776.722 577.604 779.454 586.082 779.454ZM746.013 823.259C730.752 823.259 717.281 820.339 705.6 814.498C694.107 808.469 685.158 799.991 678.752 789.063C672.534 778.135 669.426 765.324 669.426 750.628C669.426 735.932 672.534 723.215 678.752 712.476C685.158 701.548 694.107 693.164 705.6 687.323C717.093 681.483 730.564 678.562 746.013 678.562C761.463 678.562 774.934 681.483 786.426 687.323C797.919 693.164 806.774 701.548 812.992 712.476C819.398 723.215 822.601 735.932 822.601 750.628C822.601 765.324 819.398 778.135 812.992 789.063C806.774 799.991 797.919 808.469 786.426 814.498C774.934 820.339 761.463 823.259 746.013 823.259ZM746.013 785.672C763.912 785.672 772.861 773.99 772.861 750.628C772.861 727.266 763.912 715.584 746.013 715.584C728.114 715.584 719.165 727.266 719.165 750.628C719.165 773.99 728.114 785.672 746.013 785.672Z"
        fill="rgb(198, 96, 0)" />
    <path
        d="M216.241 781.998C221.139 786.708 223.589 792.172 223.589 798.389C223.589 804.607 221.234 810.07 216.524 814.781C211.813 819.491 206.255 821.846 199.849 821.846C192.878 821.846 186.473 818.831 180.632 812.802L100.088 730.28V796.976C100.088 804.889 97.7328 811.201 93.0227 815.911C88.3125 820.433 81.9066 822.694 73.8051 822.694C65.892 822.694 59.5804 820.433 54.8702 815.911C50.3485 811.201 48.0876 804.889 48.0876 796.976V645.779C48.0876 638.055 50.3485 631.932 54.8702 627.41C59.5804 622.7 65.892 620.344 73.8051 620.344C81.9066 620.344 88.3125 622.7 93.0227 627.41C97.7328 631.932 100.088 638.055 100.088 645.779V707.954L179.502 627.975C184.4 622.888 189.958 620.344 196.176 620.344C202.393 620.344 207.857 622.7 212.567 627.41C217.277 631.932 219.632 637.301 219.632 643.519C219.632 649.736 216.9 655.482 211.437 660.758L153.501 717.563L216.241 781.998ZM289.788 678.562C311.267 678.562 327.093 683.743 337.267 694.106C347.629 704.28 352.81 719.823 352.81 740.737V799.802C352.81 806.962 350.644 812.614 346.31 816.759C342.165 820.715 336.325 822.694 328.788 822.694C322.194 822.694 316.73 820.81 312.397 817.041C308.252 813.273 305.991 808.186 305.614 801.781C302.977 808.563 298.549 813.839 292.332 817.607C286.114 821.375 278.672 823.259 270.005 823.259C260.397 823.259 251.73 821.375 244.005 817.607C236.28 813.65 230.157 808.281 225.635 801.498C221.302 794.527 219.135 786.708 219.135 778.041C219.135 768.056 221.679 760.143 226.766 754.302C232.041 748.273 240.331 743.94 251.636 741.302C262.94 738.664 278.201 737.345 297.419 737.345H305.049V733.954C305.049 727.36 303.542 722.65 300.527 719.823C297.513 716.809 292.426 715.302 285.266 715.302C277.542 715.302 266.237 717.939 251.353 723.215C247.02 724.722 243.346 725.476 240.331 725.476C235.621 725.476 231.853 723.78 229.027 720.389C226.201 716.997 224.788 712.57 224.788 707.106C224.788 702.961 225.635 699.57 227.331 696.932C229.027 694.294 231.759 691.939 235.527 689.867C242.121 686.475 250.411 683.743 260.397 681.671C270.382 679.599 280.179 678.562 289.788 678.562ZM281.875 789.628C288.658 789.628 294.216 787.273 298.549 782.563C302.882 777.664 305.049 771.447 305.049 763.911V760.519H300.527C288.469 760.519 279.897 761.65 274.81 763.911C269.723 765.983 267.179 769.563 267.179 774.65C267.179 778.983 268.498 782.563 271.136 785.389C273.962 788.215 277.542 789.628 281.875 789.628ZM457.59 678.562C474.17 678.562 486.511 683.555 494.612 693.541C502.714 703.338 506.765 718.316 506.765 738.476V799.52C506.765 806.679 504.504 812.331 499.982 816.476C495.46 820.621 489.337 822.694 481.612 822.694C473.888 822.694 467.764 820.621 463.243 816.476C458.721 812.331 456.46 806.679 456.46 799.52V740.737C456.46 732.447 454.953 726.418 451.938 722.65C449.112 718.881 444.779 716.997 438.938 716.997C431.402 716.997 425.373 719.447 420.851 724.345C416.518 729.055 414.351 735.461 414.351 743.563V799.52C414.351 806.679 412.09 812.331 407.568 816.476C403.047 820.621 396.923 822.694 389.199 822.694C381.474 822.694 375.351 820.621 370.829 816.476C366.307 812.331 364.046 806.679 364.046 799.52V701.736C364.046 695.142 366.401 689.773 371.112 685.628C375.822 681.294 381.945 679.128 389.481 679.128C396.641 679.128 402.293 681.106 406.438 685.062C410.771 689.019 412.938 694.2 412.938 700.606C417.836 693.446 424.148 687.983 431.873 684.214C439.597 680.446 448.17 678.562 457.59 678.562Z"
        fill="rgb(198, 96, 0)" />
    <g filter="url(#filter0_d_45_1711)">
        <path d="M99.6582 620.998H72.8668V823.454H99.6582V620.998Z" fill="rgb(198, 96, 0)" />
    </g>
    <defs>
        <filter id="filter0_d_45_1711" x="63.0432" y="576.346" width="116.096" height="291.761"
            filterUnits="userSpaceOnUse" color-interpolation-filters="sRGB">
            <feFlood flood-opacity="0" result="BackgroundImageFix" />
            <feColorMatrix in="SourceAlpha" type="matrix" values="0 0 0 0 0 0 0 0 0 0 0 0 0 0 0 0 0 0 127 0"
                result="hardAlpha" />
            <feOffset dx="34.8289" />
            <feGaussianBlur stdDeviation="22.3262" />
            <feComposite in2="hardAlpha" operator="out" />
            <feColorMatrix type="matrix" values="0 0 0 0 0 0 0 0 0 0 0 0 0 0 0 0 0 0 0.25 0" />
            <feBlend mode="normal" in2="BackgroundImageFix" result="effect1_dropShadow_45_1711" />
            <feBlend mode="normal" in="SourceGraphic" in2="effect1_dropShadow_45_1711" result="shape" />
        </filter>
        <linearGradient id="paint0_linear_45_1711" x1="265.152" y1="208.351" x2="306.513" y2="39.3216"
            gradientUnits="userSpaceOnUse">
            <stop offset="0.526042" stop-color="rgb(198, 96, 0)" />
            <stop offset="1" stop-color="rgb(198, 96, 0)" stop-opacity="0.75" />
        </linearGradient>
        <linearGradient id="paint1_linear_45_1711" x1="450.668" y1="447.963" x2="526.153" y2="139.484"
            gradientUnits="userSpaceOnUse">
            <stop offset="0.526042" stop-color="rgb(198, 96, 0)" />
            <stop offset="1" stop-color="rgb(198, 96, 0)" stop-opacity="0.75" />
        </linearGradient>
        <linearGradient id="paint2_linear_45_1711" x1="154.052" y1="633.608" x2="244.528" y2="263.868"
            gradientUnits="userSpaceOnUse">
            <stop offset="0.526042" stop-color="rgb(198, 96, 0)" />
            <stop offset="1" stop-color="rgb(198, 96, 0)" stop-opacity="0.75" />
        </linearGradient>
        <linearGradient id="paint3_linear_45_1711" x1="522.94" y1="534.663" x2="552.579" y2="413.539"
            gradientUnits="userSpaceOnUse">
            <stop offset="0.526042" stop-color="rgb(198, 96, 0)" />
            <stop offset="1" stop-color="rgb(198, 96, 0)" stop-opacity="0.75" />
        </linearGradient>
    </defs>
</svg>