<svg width="146" height="36" viewBox="0 0 146 36" fill="none" xmlns="http://www.w3.org/2000/svg">
<path d="M47.6812 28V7.69434H52.085L58.1172 17.8755H58.2305L64.2627 7.69434H68.6099V28H64.7866V13.9956H64.6733L58.2871 24.6016H58.0039L51.6177 13.9106H51.5044V28H47.6812ZM79.1733 28.2549C76.8133 28.2549 75.0055 27.5422 73.75 26.1167C72.4756 24.7007 71.8384 22.8268 71.8384 20.4951C71.8384 18.1634 72.4756 16.2754 73.75 14.8311C75.0244 13.3867 76.8322 12.6646 79.1733 12.6646C81.4956 12.6646 83.2939 13.3867 84.5684 14.8311C85.8428 16.2754 86.48 18.1634 86.48 20.4951C86.48 22.7985 85.8522 24.6629 84.5967 26.0884C83.3223 27.5327 81.5145 28.2549 79.1733 28.2549ZM79.1733 24.8423C81.4106 24.8423 82.5293 23.3932 82.5293 20.4951C82.5293 17.5498 81.4106 16.0771 79.1733 16.0771C76.9266 16.0771 75.8032 17.5498 75.8032 20.4951C75.8032 23.3932 76.9266 24.8423 79.1733 24.8423ZM97.355 28.2549C95.5519 28.2549 94.1642 27.6271 93.1919 26.3716H93.0645L92.668 28H89.1846V6.5332H93.0645V14.5479H93.1919C94.1642 13.2923 95.5519 12.6646 97.355 12.6646C99.2713 12.6646 100.782 13.3867 101.886 14.8311C102.991 16.2754 103.543 18.154 103.543 20.4668C103.543 22.8174 102.991 24.7007 101.886 26.1167C100.744 27.5422 99.2336 28.2549 97.355 28.2549ZM93.73 23.5962C94.2775 24.4269 95.1224 24.8423 96.2646 24.8423C97.4069 24.8423 98.2565 24.4364 98.8135 23.6245C99.3327 22.8221 99.5923 21.7695 99.5923 20.4668C99.5923 19.1357 99.3327 18.069 98.8135 17.2666C98.2471 16.4736 97.3975 16.0771 96.2646 16.0771C95.1035 16.0771 94.2586 16.4831 93.73 17.2949C93.1919 18.0785 92.9229 19.1357 92.9229 20.4668C92.9229 21.7695 93.1919 22.8127 93.73 23.5962ZM114.404 28.2549C112.601 28.2549 111.213 27.6271 110.241 26.3716H110.113L109.717 28H106.233V6.5332H110.113V14.5479H110.241C111.213 13.2923 112.601 12.6646 114.404 12.6646C116.32 12.6646 117.831 13.3867 118.935 14.8311C120.04 16.2754 120.592 18.154 120.592 20.4668C120.592 22.8174 120.04 24.7007 118.935 26.1167C117.793 27.5422 116.282 28.2549 114.404 28.2549ZM110.779 23.5962C111.326 24.4269 112.171 24.8423 113.313 24.8423C114.456 24.8423 115.305 24.4364 115.862 23.6245C116.382 22.8221 116.641 21.7695 116.641 20.4668C116.641 19.1357 116.382 18.069 115.862 17.2666C115.296 16.4736 114.446 16.0771 113.313 16.0771C112.152 16.0771 111.307 16.4831 110.779 17.2949C110.241 18.0785 109.972 19.1357 109.972 20.4668C109.972 21.7695 110.241 22.8127 110.779 23.5962ZM125.25 11.0361C124.448 11.0361 123.849 10.8237 123.452 10.3989C123.046 9.993 122.843 9.41243 122.843 8.65723C122.843 7.94922 123.046 7.37809 123.452 6.94385C123.858 6.53792 124.458 6.33496 125.25 6.33496C125.996 6.33496 126.586 6.53792 127.021 6.94385C127.445 7.36865 127.658 7.93978 127.658 8.65723C127.658 9.42188 127.445 10.0024 127.021 10.3989C126.596 10.8237 126.006 11.0361 125.25 11.0361ZM123.282 28V12.9194H127.162V28H123.282ZM130.447 28V12.9194H133.931L134.214 14.6328H134.327C135.328 13.3206 136.758 12.6646 138.618 12.6646C140.298 12.6646 141.634 13.146 142.625 14.1089C143.616 15.1001 144.112 16.4359 144.112 18.1162V28H140.218V19.2065C140.218 17.1958 139.288 16.1904 137.428 16.1904C136.513 16.1904 135.771 16.502 135.205 17.125C134.62 17.7386 134.327 18.5788 134.327 19.6455V28H130.447Z" fill="black"/>
<path fill-rule="evenodd" clip-rule="evenodd" d="M27.1486 3.00217C27.0216 2.99176 26.8902 3.01854 26.7715 3.08707L16.9254 8.77174L7.07925 3.08707C6.97123 3.02471 6.85275 2.99692 6.73661 3.00027C6.62046 2.99692 6.50198 3.02471 6.39397 3.08707L1.33483 6.00796C1.13699 6.12219 1.02203 6.32484 1.01105 6.53718C1.00379 6.57603 1 6.6161 1 6.65705V29.6997C1 29.7332 1.00255 29.7662 1.00746 29.7984C0.992391 30.0368 1.10996 30.2745 1.33083 30.402L6.38996 33.3229C6.51377 33.3944 6.65135 33.4204 6.78339 33.4062C6.91542 33.4204 7.05299 33.3944 7.1768 33.3229L12.2359 30.402C12.3429 30.3403 12.4256 30.2527 12.4808 30.1517C12.5474 30.0497 12.5862 29.9279 12.5862 29.797V18.7063L16.7108 21.0876C16.8295 21.1561 16.9608 21.1829 17.0878 21.1725C17.2147 21.1829 17.346 21.1561 17.4647 21.0876L21.4461 18.7889V29.797C21.4461 29.859 21.4548 29.9189 21.471 29.9757C21.5081 30.1489 21.6157 30.3064 21.7812 30.402L26.8403 33.3229C26.9617 33.393 27.0963 33.4194 27.226 33.407C27.3556 33.4194 27.4902 33.393 27.6116 33.3229L32.6708 30.402C32.8939 30.2732 33.0116 30.0319 32.9936 29.7911C32.9978 29.7612 33 29.7307 33 29.6996V6.65705C33 6.45052 32.9035 6.26651 32.7532 6.14763C32.7067 6.09329 32.6502 6.04578 32.5847 6.00796L27.5256 3.08707C27.4069 3.01854 27.2756 2.99176 27.1486 3.00217ZM31.7018 29.4624V7.32538L17.1401 15.7326C17.0326 15.7947 16.9148 15.8225 16.7992 15.8195C16.6836 15.8225 16.5658 15.7947 16.4583 15.7326L2.29817 7.55725V29.4615L6.19265 31.71V14.7706C6.19265 14.5875 6.2685 14.4221 6.3905 14.3041C6.5828 14.0367 6.95028 13.9534 7.24159 14.1216L17.0877 19.8062L26.9339 14.1216C27.2443 13.9423 27.6413 14.0487 27.8205 14.3592C27.85 14.4102 27.8718 14.4636 27.8862 14.518C27.919 14.5957 27.9372 14.681 27.9372 14.7706V31.6359L31.7018 29.4624ZM26.639 31.7077L22.7443 29.459V18.1134C22.7443 18.0892 22.743 18.0653 22.7404 18.0417L26.639 15.7908V31.7077ZM11.288 29.4503V18.1134C11.288 18.0629 11.2938 18.0137 11.3047 17.9664L7.49083 15.7645V31.6426L11.288 29.4503ZM30.6879 6.4118L16.7992 14.4304L3.07113 6.50451L6.73661 4.38825L16.5484 10.0531C16.6671 10.1216 16.7984 10.1484 16.9254 10.138C17.0524 10.1484 17.1837 10.1216 17.3023 10.0531L27.1486 4.3684L30.6879 6.4118Z" fill="black"/>
<path d="M26.7715 3.08707L26.6465 2.87056L26.6465 2.87056L26.7715 3.08707ZM27.1486 3.00217L27.1281 3.25134L27.1486 3.25301L27.169 3.25134L27.1486 3.00217ZM16.9254 8.77174L16.8004 8.98825L16.9254 9.06042L17.0504 8.98825L16.9254 8.77174ZM7.07925 3.08707L7.20425 2.87056L7.20425 2.87056L7.07925 3.08707ZM6.73661 3.00027L6.7294 3.25017L6.73661 3.25037L6.74381 3.25017L6.73661 3.00027ZM6.39397 3.08707L6.26897 2.87056L6.26897 2.87056L6.39397 3.08707ZM1.33483 6.00796L1.20983 5.79146L1.20983 5.79146L1.33483 6.00796ZM1.01105 6.53718L1.2568 6.58306L1.25985 6.5667L1.26071 6.55009L1.01105 6.53718ZM1.00746 29.7984L1.25697 29.8142L1.25867 29.7873L1.2546 29.7607L1.00746 29.7984ZM1.33083 30.402L1.20583 30.6185L1.20583 30.6185L1.33083 30.402ZM6.38996 33.3229L6.51496 33.1064L6.51496 33.1064L6.38996 33.3229ZM6.78339 33.4062L6.81012 33.1577L6.78339 33.1548L6.75666 33.1577L6.78339 33.4062ZM7.1768 33.3229L7.0518 33.1064L7.0518 33.1064L7.1768 33.3229ZM12.2359 30.402L12.1109 30.1855L12.1109 30.1855L12.2359 30.402ZM12.4808 30.1517L12.2715 30.0149L12.2661 30.0232L12.2614 30.0318L12.4808 30.1517ZM12.5862 18.7063L12.7112 18.4898L12.3362 18.2732V18.7063H12.5862ZM16.7108 21.0876L16.8358 20.8711L16.8358 20.8711L16.7108 21.0876ZM17.0878 21.1725L17.1082 20.9233L17.0877 20.9217L17.0673 20.9233L17.0878 21.1725ZM17.4647 21.0876L17.3397 20.8711L17.3397 20.8711L17.4647 21.0876ZM21.4461 18.7889H21.6961V18.3559L21.3211 18.5724L21.4461 18.7889ZM21.471 29.9757L21.7155 29.9233L21.7137 29.9151L21.7114 29.907L21.471 29.9757ZM21.7812 30.402L21.6562 30.6185L21.6562 30.6185L21.7812 30.402ZM26.8403 33.3229L26.7153 33.5394L26.7153 33.5394L26.8403 33.3229ZM27.226 33.407L27.2497 33.1582L27.226 33.1559L27.2022 33.1582L27.226 33.407ZM27.6116 33.3229L27.7366 33.5394L27.7366 33.5394L27.6116 33.3229ZM32.6708 30.402L32.7958 30.6185L32.7958 30.6185L32.6708 30.402ZM32.9936 29.7911L32.7461 29.7562L32.7423 29.7829L32.7443 29.8097L32.9936 29.7911ZM32.7532 6.14763L32.5634 6.3103L32.5791 6.3287L32.5981 6.34373L32.7532 6.14763ZM32.5847 6.00796L32.7097 5.79146L32.7097 5.79146L32.5847 6.00796ZM27.5256 3.08707L27.4006 3.30358L27.4006 3.30358L27.5256 3.08707ZM31.7018 29.4624L31.8268 29.6789L31.9518 29.6067V29.4624H31.7018ZM31.7018 7.32538H31.9518V6.89237L31.5768 7.10888L31.7018 7.32538ZM17.1401 15.7326L17.0151 15.5161L17.0151 15.5161L17.1401 15.7326ZM16.7992 15.8195L16.8057 15.5692L16.7927 15.5695L16.7992 15.8195ZM16.4583 15.7326L16.5833 15.5161L16.5833 15.5161L16.4583 15.7326ZM2.29817 7.55725L2.42317 7.34074L2.04817 7.12424V7.55725H2.29817ZM2.29817 29.4615H2.04817V29.6058L2.17317 29.678L2.29817 29.4615ZM6.19265 31.71L6.06765 31.9265L6.44265 32.143V31.71H6.19265ZM6.3905 14.3041L6.56432 14.4837L6.5804 14.4682L6.59346 14.45L6.3905 14.3041ZM7.24159 14.1216L7.36659 13.9051L7.36659 13.9051L7.24159 14.1216ZM17.0877 19.8062L16.9627 20.0227L17.0877 20.0949L17.2127 20.0227L17.0877 19.8062ZM26.9339 14.1216L26.8089 13.9051L26.8089 13.9051L26.9339 14.1216ZM27.8205 14.3592L27.604 14.4842L27.604 14.4842L27.8205 14.3592ZM27.8862 14.518L27.6445 14.582L27.649 14.5991L27.6559 14.6154L27.8862 14.518ZM27.9372 31.6359H27.6872V32.0689L28.0622 31.8524L27.9372 31.6359ZM22.7443 29.459H22.4943V29.6034L22.6193 29.6755L22.7443 29.459ZM26.639 31.7077L26.514 31.9242L26.889 32.1407V31.7077H26.639ZM22.7404 18.0417L22.6154 17.8252L22.474 17.9068L22.4919 18.069L22.7404 18.0417ZM26.639 15.7908H26.889V15.3578L26.514 15.5743L26.639 15.7908ZM11.288 29.4503L11.413 29.6668L11.538 29.5946V29.4503H11.288ZM11.3047 17.9664L11.5483 18.0228L11.59 17.8425L11.4297 17.7499L11.3047 17.9664ZM7.49083 15.7645L7.61583 15.548L7.24083 15.3315V15.7645H7.49083ZM7.49083 31.6426H7.24083V32.0756L7.61583 31.8591L7.49083 31.6426ZM16.7992 14.4304L16.6742 14.6469L16.7992 14.7191L16.9242 14.6469L16.7992 14.4304ZM30.6879 6.4118L30.8129 6.62831L31.1879 6.4118L30.8129 6.1953L30.6879 6.4118ZM3.07113 6.50451L2.94613 6.28801L2.57113 6.50451L2.94613 6.72102L3.07113 6.50451ZM6.73661 4.38825L6.86161 4.17174L6.73661 4.09957L6.61161 4.17174L6.73661 4.38825ZM16.5484 10.0531L16.6734 9.8366L16.6734 9.8366L16.5484 10.0531ZM16.9254 10.138L16.9458 9.88884L16.9254 9.88717L16.905 9.88884L16.9254 10.138ZM17.3023 10.0531L17.4273 10.2696L17.4273 10.2696L17.3023 10.0531ZM27.1486 4.3684L27.2736 4.15189L27.1486 4.07972L27.0236 4.15189L27.1486 4.3684ZM26.8965 3.30358C26.9698 3.26127 27.0502 3.24495 27.1281 3.25134L27.169 2.75301C26.993 2.73857 26.8107 2.77581 26.6465 2.87056L26.8965 3.30358ZM17.0504 8.98825L26.8965 3.30358L26.6465 2.87056L16.8004 8.55524L17.0504 8.98825ZM6.95425 3.30358L16.8004 8.98825L17.0504 8.55524L7.20425 2.87056L6.95425 3.30358ZM6.74381 3.25017C6.81498 3.24811 6.8875 3.26504 6.95425 3.30358L7.20425 2.87056C7.05497 2.78438 6.89052 2.74573 6.7294 2.75037L6.74381 3.25017ZM6.51897 3.30358C6.58572 3.26504 6.65824 3.24811 6.7294 3.25017L6.74381 2.75037C6.58269 2.74573 6.41824 2.78438 6.26897 2.87056L6.51897 3.30358ZM1.45983 6.22447L6.51897 3.30358L6.26897 2.87056L1.20983 5.79146L1.45983 6.22447ZM1.26071 6.55009C1.2675 6.41877 1.33841 6.29457 1.45983 6.22447L1.20983 5.79146C0.935563 5.94981 0.776548 6.23091 0.76138 6.52427L1.26071 6.55009ZM1.25 6.65705C1.25 6.63156 1.25236 6.60685 1.2568 6.58306L0.765293 6.49129C0.755228 6.5452 0.75 6.60063 0.75 6.65705H1.25ZM1.25 29.6997V6.65705H0.75V29.6997H1.25ZM1.2546 29.7607C1.25159 29.7409 1.25 29.7206 1.25 29.6997H0.75C0.75 29.7459 0.753513 29.7915 0.760327 29.8361L1.2546 29.7607ZM1.45583 30.1855C1.32035 30.1073 1.24766 29.9614 1.25697 29.8142L0.757963 29.7826C0.737126 30.1121 0.899579 30.4417 1.20583 30.6185L1.45583 30.1855ZM6.51496 33.1064L1.45583 30.1855L1.20583 30.6185L6.26496 33.5394L6.51496 33.1064ZM6.75666 33.1577C6.67554 33.1664 6.59135 33.1505 6.51496 33.1064L6.26496 33.5394C6.4362 33.6383 6.62716 33.6745 6.81012 33.6548L6.75666 33.1577ZM7.0518 33.1064C6.97541 33.1505 6.89123 33.1664 6.81012 33.1577L6.75666 33.6548C6.93961 33.6745 7.13056 33.6383 7.3018 33.5394L7.0518 33.1064ZM12.1109 30.1855L7.0518 33.1064L7.3018 33.5394L12.3609 30.6185L12.1109 30.1855ZM12.2614 30.0318C12.2276 30.0937 12.177 30.1473 12.1109 30.1855L12.3609 30.6185C12.5087 30.5332 12.6236 30.4116 12.7002 30.2715L12.2614 30.0318ZM12.3362 29.797C12.3362 29.8779 12.3124 29.9524 12.2715 30.0149L12.6901 30.2884C12.7825 30.1471 12.8362 29.9779 12.8362 29.797H12.3362ZM12.3362 18.7063V29.797H12.8362V18.7063H12.3362ZM16.8358 20.8711L12.7112 18.4898L12.4612 18.9228L16.5858 21.3041L16.8358 20.8711ZM17.0673 20.9233C16.9894 20.9297 16.909 20.9134 16.8358 20.8711L16.5858 21.3041C16.7499 21.3989 16.9322 21.4361 17.1082 21.4217L17.0673 20.9233ZM17.3397 20.8711C17.2664 20.9134 17.1861 20.9297 17.1082 20.9233L17.0674 21.4217C17.2433 21.4361 17.4256 21.3988 17.5897 21.3041L17.3397 20.8711ZM21.3211 18.5724L17.3397 20.8711L17.5897 21.3041L21.5711 19.0054L21.3211 18.5724ZM21.6961 29.797V18.7889H21.1961V29.797H21.6961ZM21.7114 29.907C21.7015 29.8724 21.6961 29.8355 21.6961 29.797H21.1961C21.1961 29.8824 21.2081 29.9655 21.2306 30.0444L21.7114 29.907ZM21.9062 30.1855C21.8044 30.1267 21.7384 30.0303 21.7155 29.9233L21.2266 30.0281C21.2779 30.2676 21.4269 30.4861 21.6562 30.6185L21.9062 30.1855ZM26.9653 33.1064L21.9062 30.1855L21.6562 30.6185L26.7153 33.5394L26.9653 33.1064ZM27.2022 33.1582C27.1226 33.1658 27.0402 33.1496 26.9653 33.1064L26.7153 33.5394C26.8832 33.6363 27.07 33.673 27.2497 33.6559L27.2022 33.1582ZM27.4866 33.1064C27.4117 33.1496 27.3293 33.1658 27.2497 33.1582L27.2022 33.6559C27.3819 33.673 27.5688 33.6363 27.7366 33.5394L27.4866 33.1064ZM32.5458 30.1855L27.4866 33.1064L27.7366 33.5394L32.7958 30.6185L32.5458 30.1855ZM32.7443 29.8097C32.7554 29.9584 32.6826 30.1065 32.5458 30.1855L32.7958 30.6185C33.1051 30.4399 33.2678 30.1054 33.2429 29.7725L32.7443 29.8097ZM32.75 29.6996C32.75 29.719 32.7487 29.7379 32.7461 29.7562L33.2412 29.826C33.247 29.7846 33.25 29.7424 33.25 29.6996H32.75ZM32.75 6.65705V29.6996H33.25V6.65705H32.75ZM32.5981 6.34373C32.6911 6.41723 32.75 6.53019 32.75 6.65705H33.25C33.25 6.37085 33.116 6.11579 32.9083 5.95154L32.5981 6.34373ZM32.4597 6.22447C32.5004 6.24795 32.535 6.27715 32.5634 6.3103L32.9431 5.98497C32.8783 5.90943 32.8001 5.84362 32.7097 5.79146L32.4597 6.22447ZM27.4006 3.30358L32.4597 6.22447L32.7097 5.79146L27.6506 2.87056L27.4006 3.30358ZM27.169 3.25134C27.2469 3.24495 27.3273 3.26127 27.4006 3.30358L27.6506 2.87056C27.4865 2.77581 27.3042 2.73858 27.1281 2.75301L27.169 3.25134ZM31.9518 29.4624V7.32538H31.4518V29.4624H31.9518ZM31.5768 7.10888L17.0151 15.5161L17.2651 15.9491L31.8268 7.54189L31.5768 7.10888ZM17.0151 15.5161C16.9487 15.5544 16.8765 15.5714 16.8057 15.5695L16.7927 16.0694C16.953 16.0736 17.1166 16.0349 17.2651 15.9491L17.0151 15.5161ZM16.7927 15.5695C16.7219 15.5714 16.6497 15.5544 16.5833 15.5161L16.3333 15.9491C16.4818 16.0349 16.6454 16.0736 16.8057 16.0694L16.7927 15.5695ZM16.5833 15.5161L2.42317 7.34074L2.17317 7.77376L16.3333 15.9491L16.5833 15.5161ZM2.04817 7.55725V29.4615H2.54817V7.55725H2.04817ZM2.17317 29.678L6.06765 31.9265L6.31765 31.4935L2.42317 29.245L2.17317 29.678ZM6.44265 31.71V14.7706H5.94265V31.71H6.44265ZM6.44265 14.7706C6.44265 14.658 6.48899 14.5566 6.56432 14.4837L6.21668 14.1244C6.04801 14.2875 5.94265 14.517 5.94265 14.7706H6.44265ZM6.59346 14.45C6.71154 14.2858 6.93761 14.2347 7.11659 14.3381L7.36659 13.9051C6.96295 13.672 6.45406 13.7875 6.18753 14.1581L6.59346 14.45ZM7.11659 14.3381L16.9627 20.0227L17.2127 19.5897L7.36659 13.9051L7.11659 14.3381ZM17.2127 20.0227L27.0589 14.3381L26.8089 13.9051L16.9627 19.5897L17.2127 20.0227ZM27.0589 14.3381C27.2498 14.2279 27.4938 14.2933 27.604 14.4842L28.0371 14.2342C27.7888 13.8041 27.2389 13.6568 26.8089 13.9051L27.0589 14.3381ZM27.604 14.4842C27.6224 14.5159 27.6357 14.5487 27.6445 14.582L28.1279 14.4541C28.1079 14.3785 28.0777 14.3045 28.0371 14.2341L27.604 14.4842ZM27.6559 14.6154C27.676 14.6628 27.6872 14.7151 27.6872 14.7706H28.1872C28.1872 14.647 28.1621 14.5285 28.1164 14.4206L27.6559 14.6154ZM27.6872 14.7706V31.6359H28.1872V14.7706H27.6872ZM28.0622 31.8524L31.8268 29.6789L31.5768 29.2459L27.8122 31.4194L28.0622 31.8524ZM22.6193 29.6755L26.514 31.9242L26.764 31.4911L22.8693 29.2425L22.6193 29.6755ZM22.4943 18.1134V29.459H22.9943V18.1134H22.4943ZM22.4919 18.069C22.4935 18.0835 22.4943 18.0984 22.4943 18.1134H22.9943C22.9943 18.08 22.9925 18.047 22.9889 18.0144L22.4919 18.069ZM26.514 15.5743L22.6154 17.8252L22.8654 18.2582L26.764 16.0073L26.514 15.5743ZM26.889 31.7077V15.7908H26.389V31.7077H26.889ZM11.038 18.1134V29.4503H11.538V18.1134H11.038ZM11.0612 17.91C11.046 17.9756 11.038 18.0438 11.038 18.1134H11.538C11.538 18.082 11.5416 18.0517 11.5483 18.0228L11.0612 17.91ZM7.36583 15.981L11.1797 18.1829L11.4297 17.7499L7.61583 15.548L7.36583 15.981ZM7.74083 31.6426V15.7645H7.24083V31.6426H7.74083ZM11.163 29.2338L7.36583 31.4261L7.61583 31.8591L11.413 29.6668L11.163 29.2338ZM16.9242 14.6469L30.8129 6.62831L30.5629 6.1953L16.6742 14.2139L16.9242 14.6469ZM2.94613 6.72102L16.6742 14.6469L16.9242 14.2139L3.19613 6.28801L2.94613 6.72102ZM6.61161 4.17174L2.94613 6.28801L3.19613 6.72102L6.86161 4.60476L6.61161 4.17174ZM16.6734 9.8366L6.86161 4.17174L6.61161 4.60476L16.4234 10.2696L16.6734 9.8366ZM16.905 9.88884C16.8271 9.89523 16.7467 9.8789 16.6734 9.8366L16.4234 10.2696C16.5875 10.3644 16.7698 10.4016 16.9458 10.3872L16.905 9.88884ZM17.1773 9.8366C17.1041 9.8789 17.0237 9.89523 16.9458 9.88884L16.905 10.3872C17.081 10.4016 17.2633 10.3644 17.4273 10.2696L17.1773 9.8366ZM27.0236 4.15189L17.1773 9.8366L17.4273 10.2696L27.2736 4.5849L27.0236 4.15189ZM30.8129 6.1953L27.2736 4.15189L27.0236 4.5849L30.5629 6.62831L30.8129 6.1953Z" fill="black"/>
</svg>
